<?xml version="1.0" encoding="UTF-8"?>
<svg version="1.1" viewBox="0 0 198 33" 
    xmlns="http://www.w3.org/2000/svg">
    <g fill="none" fill-rule="evenodd">
        <g transform="translate(-95 -5592)" fill-rule="nonzero">
            <g transform="translate(95 5592)">
                <path id="Path" d="m0 32.107c7.603-3.9139 18.74-10.243 31.96-19.494v-3.1054c-11.635 7.6122-23.467 13.724-31.96 17.768v4.8317z" fill="#179C7D"/>
                <path id="Path" d="m0 22.834c8.4654-3.4488 20.297-8.7772 31.96-15.714v-1.5331c-10.962 5.4377-22.351 8.8411-31.96 10.963v6.284z" fill="#179C7D"/>
                <path id="Path" d="m31.96 32.122v-15.619c-7.2765 6.1338-14.483 11.445-20.536 15.619h20.536z" fill="#179C7D"/>
                <path id="Path" d="m7.3381 32.122c5.748-3.4126 12.725-7.8655 19.673-13.07 1.6208-1.2151 3.2763-2.4663 4.9496-3.7599v-1.9358c-10.285 7.71-20.782 14.137-28.982 18.766h4.359z" fill="#179C7D"/>
                <path id="Path" d="m0 14.277c9.3478-1.6439 20.785-4.6015 31.96-9.913v-1.741c-11.262 5.0558-22.534 7.1995-31.96 7.9626v3.6914z" fill="#179C7D"/>
                <path id="Path" d="m0 0v8.9474c0.69839-0.04312 1.4099-0.09317 2.1367-0.14938 7.7716-0.59752 18.378-1.9712 29.824-6.92v-1.878h-31.96z" fill="#179C7D"/>
                <path id="Path" d="m0 8.9474v1.6386c9.4263-0.76307 20.698-2.9067 31.96-7.9626v-0.74536c-11.445 4.9488-22.052 6.3225-29.824 6.92-0.72688 0.05698-1.4384 0.10626-2.1367 0.14938z" fill="#fff"/>
                <path id="Path" d="m0 16.55c9.6096-2.1221 20.999-5.5255 31.96-10.963v-1.2212c-11.176 5.3107-22.613 8.2683-31.96 9.9122v2.2723z" fill="#fff"/>
                <path id="Path" d="m0 27.275c8.4939-4.0433 20.325-10.156 31.96-17.768v-2.3878c-11.663 6.9369-23.495 12.265-31.96 15.714v4.4414z" fill="#fff"/>
                <path id="a" d="m7.3381 32.122h4.0872c6.053-4.1734 13.259-9.4856 20.536-15.619v-1.2104c-1.6732 1.2936-3.3279 2.5448-4.9496 3.7599-6.9485 5.2044-13.925 9.6573-19.673 13.07z" fill="#fff"/>
                <path d="m0 32.122h2.9791c8.2005-4.6285 18.697-11.055 28.981-18.766v-0.74382c-13.22 9.2523-24.357 15.58-31.96 19.494v0.0154z" fill="#fff"/>
                <path d="m187.82 32.107h4.1103v-5.8012c0-2.2692 0-6.4441 3.3418-6.4441 0.73689 0 1.4753 0.12166 1.8442 0.33803v-4.1411c-0.43274-0.1232-0.86163-0.1232-1.259-0.1232-2.4548 0-4.1418 2.4871-4.3251 3.9563h-0.06314v-3.5867h-3.6483v15.802h-7.7e-4zm-4.1118-4.2335c-1.5354 0.85778-3.2517 1.5962-5.2483 1.5962-2.5418 0-4.322-1.4422-4.5099-3.9924h10.922c0-5.5224-1.654-9.5411-7.5167-9.5411-4.9057 0-7.3304 3.773-7.3304 8.3453 0 5.1883 3.0346 8.1936 8.2536 8.1936 2.2107 0 3.9239-0.42889 5.4308-1.259v-3.3426h-7.7e-4zm-9.759-5.2183c0.18788-2.1175 1.349-3.7122 3.6513-3.7122s3.2248 1.7186 3.3449 3.7122h-6.9962zm-13.131 9.4517h4.1103v-12.797h3.5882v-3.0053h-3.5882v-1.9643c0-1.2266 0.43197-2.4247 1.8134-2.4247 0.88858 0 1.4106 0.3388 1.7748 0.5544l0.33957-3.4065c-0.79541-0.18403-1.9627-0.33803-3.0061-0.33803-3.2532 0-5.032 2.2091-5.032 5.3692v2.2099h-3.0361v3.0053h3.0361v12.797zm-16.352-8.2867c0-2.3624 1.2874-4.6947 3.9586-4.6947 2.7012 0 3.9871 2.2715 3.9871 4.6947 0 2.6403-0.82544 5.4631-3.9871 5.4631-3.1331-7.7e-4 -3.9586-2.8552-3.9586-5.4631m-4.2981 0.49357c0 4.5376 3.0407 8.1605 8.2567 8.1605 5.2452 0 8.2821-3.6228 8.2821-8.1605 0-5.2175-3.5851-8.3776-8.2821-8.3776-4.6639-7.699e-4 -8.2567 3.1601-8.2567 8.3776m-17.119 7.7932h4.1133v-7.7346c0-2.0236 0.64372-5.2468 3.6213-5.2468 2.638 0 2.6665 2.6095 2.6665 4.5415v8.44h4.1087v-9.9738c0-3.5589-1.6255-6.1977-5.3661-6.1977-2.1475 0-3.927 0.98252-4.9657 2.5164h-0.06468v-9.357h-4.1133v23.012zm-18.743 0h4.1087v-7.7346c0-2.0236 0.6468-5.2468 3.6213-5.2468 2.638 0 2.668 2.6095 2.668 4.5415v8.44h4.1149v-9.9738c0-3.5589-1.6286-6.1977-5.3708-6.1977-2.1475 0-3.8977 0.70686-5.1852 2.5164h-0.06468v-2.1475h-3.8924v15.803zm-4.2365-15.802h-4.1133v7.7323c0 2.0228-0.64372 5.2452-3.6198 5.2452-2.6388 0-2.6696-2.6095-2.6696-4.5422v-8.4353h-4.111v9.9715c0 3.5582 1.6262 6.1977 5.3692 6.1977 2.1468 0 3.9278-0.98021 5.1844-2.5164h0.06237v2.1491h3.897v-15.802h7.7e-4zm-28.045 11.23c0-2.4255 2.7304-2.732 4.5723-2.732h1.7802c0 1.2289-0.18403 2.3616-0.86009 3.254-0.64372 0.8547-1.6239 1.4122-2.8829 1.4122-1.4722 0-2.6095-0.58597-2.6095-1.9342m-2.0852-6.873c1.3806-1.0449 3.1285-1.7186 4.8787-1.7186 2.4224 0 3.5582 0.85855 3.5582 3.4065h-2.2707c-1.7171 0-3.743 0.15092-5.3076 0.91938-1.5654 0.76846-2.6988 2.1483-2.6988 4.513 0 3.0038 2.7296 4.6924 5.5209 4.6924 1.8719 0 3.9285-0.98021 4.8779-2.7296h0.06237c0.03234 0.48895 0.03234 1.5292 0.18403 2.3624h3.6198c-0.09163-1.2305-0.15246-2.3354-0.1848-3.5312-0.03003-1.165-0.06083-2.3616-0.06083-3.9578v-2.0251c0-4.6639-1.9943-6.6574-6.8106-6.6574-1.7494 0-3.8962 0.462-5.4924 1.1974l0.12397 3.5289zm-12.364 11.445h4.111v-5.8012c0-2.2692 0-6.4441 3.3433-6.4441 0.73689 0 1.473 0.12166 1.8426 0.33803v-4.1411c-0.42966-0.1232-0.85855-0.1232-1.2582-0.1232-2.454 0-4.1418 2.4871-4.3259 3.9563h-0.0616v-3.5867h-3.6513v15.802zm-14.849 0h4.2958v-9.3917h7.2411v-3.3749h-7.2411v-5.276h7.6091v-3.3741h-11.905v21.417z" fill="#000"/>
            </g>
        </g>
    </g>
</svg>
