<?xml version="1.0" encoding="UTF-8"?>
<svg version="1.1" viewBox="0 0 123 34" 
    xmlns="http://www.w3.org/2000/svg" 
    xmlns:xlink="http://www.w3.org/1999/xlink">
    <title>Group 17</title>
    <desc>Created with Sketch.</desc>
    <defs>
        <polygon id="b" points="0 0.20196 24.068 0.20196 24.068 33.32 0 33.32"/>
        <polygon id="a" points="0.10288 0.041616 20.462 0.041616 20.462 31.927 0.10288 31.927"/>
    </defs>
    <g fill="none" fill-rule="evenodd">
        <g transform="translate(-418 -5491)">
            <g transform="translate(418 5491)">
                <g transform="translate(0 .13797)">
                    <mask id="d" fill="white">
                        <use xlink:href="#b"/>
                    </mask>
                    <path d="m23.587 14.377h-10.291c-0.2652 0-0.48076 0.21556-0.48076 0.4811v5.0313c0 0.26554 0.21556 0.48144 0.48076 0.48144h4.0147v6.2512s-0.90134 0.30702-3.3932 0.30702c-2.9403 0-7.0475-1.0741-7.0475-10.106 0-9.0335 4.2769-10.222 8.2919-10.222 3.4755 0 4.9732 0.612 5.9255 0.90678 0.29954 0.09146 0.5763-0.20638 0.5763-0.47192l1.1482-4.8613c0-0.12444-0.04216-0.27404-0.1836-0.3757-0.38726-0.27608-2.7475-1.597-8.7108-1.597-6.8704 0-13.917 2.923-13.917 16.973 0 14.051 8.0682 16.145 14.867 16.145 5.6294 0 9.0443-2.4055 9.0443-2.4055 0.14076-0.07752 0.15606-0.27438 0.15606-0.36448v-15.692c0-0.26554-0.21522-0.4811-0.48076-0.4811" fill="#100F0F" mask="url(#d)"/>
                </g>
                <path d="m76.621 2.0235c0-0.26758-0.21216-0.48382-0.4777-0.48382h-5.7943c-0.26486 0-0.47974 0.21624-0.47974 0.48382 0 0.00136 0.00136 11.198 0.00136 11.198h-9.0318v-11.198c0-0.26758-0.21318-0.48382-0.47804-0.48382h-5.7943c-0.2635 0-0.47838 0.21624-0.47838 0.48382v30.321c0 0.26724 0.21488 0.48518 0.47838 0.48518h5.7943c0.26486 0 0.47804-0.21794 0.47804-0.48518v-12.969h9.0318s-0.01564 12.968-0.01564 12.969c0 0.26724 0.21488 0.48518 0.48008 0.48518h5.8079c0.2652 0 0.47736-0.21794 0.47804-0.48518v-30.321z" fill="#100F0F"/>
                <path d="m34.521 6.0022c0-2.0866-1.6728-3.7723-3.7366-3.7723-2.0618 0-3.7356 1.6857-3.7356 3.7723 0 2.0842 1.6738 3.775 3.7356 3.775 2.0638 0 3.7366-1.6908 3.7366-3.775" fill="#100F0F"/>
                <path d="m34.107 25.948v-13.996c0-0.26554-0.2142-0.4828-0.4794-0.4828h-5.7759c-0.2652 0-0.50218 0.27336-0.50218 0.5389v20.052c0 0.58922 0.3672 0.76466 0.84252 0.76466h5.204c0.57086 0 0.71094-0.2805 0.71094-0.77418v-6.1027z" fill="#100F0F"/>
                <path d="m98.642 11.515h-5.7497c-0.26384 0-0.47838 0.21726-0.47838 0.48484v14.867s-1.461 1.069-3.5343 1.069c-2.0733 0-2.6234-0.94078-2.6234-2.9709v-12.965c0-0.26758-0.2142-0.48484-0.47804-0.48484h-5.8358c-0.26316 0-0.47906 0.21726-0.47906 0.48484v13.946c0 6.0299 3.3606 7.5052 7.9835 7.5052 3.793 0 6.851-2.0954 6.851-2.0954s0.14518 1.1043 0.21148 1.2352c0.06562 0.13056 0.23732 0.26248 0.42296 0.26248l3.7125-0.01632c0.26316 0 0.47906-0.2176 0.47906-0.48416l-0.00204-20.353c0-0.26758-0.21488-0.48484-0.47974-0.48484" fill="#100F0F"/>
                <g transform="translate(102 1.498)">
                    <mask id="c" fill="white">
                        <use xlink:href="#a"/>
                    </mask>
                    <path d="m10.09 26.419c-1.9944-0.06086-3.3473-0.9656-3.3473-0.9656v-9.6019s1.3345-0.81804 2.9719-0.96424c2.0706-0.1853 4.0657 0.43996 4.0657 5.3795 0 5.2085-0.90032 6.2366-3.6904 6.1523m2.2678-17.083c-3.2657 0-5.4869 1.4572-5.4869 1.4572v-10.267c0-0.26758-0.2142-0.48382-0.47804-0.48382h-5.8109c-0.26418 0-0.47872 0.21624-0.47872 0.48382v30.321c0 0.26758 0.21454 0.48518 0.47974 0.48518h4.0314c0.18156 0 0.31892-0.09384 0.42058-0.25772 0.1003-0.16286 0.2448-1.3977 0.2448-1.3977s2.3759 2.2515 6.8738 2.2515c5.2809 0 8.3093-2.6785 8.3093-12.024s-4.8368-10.567-8.1049-10.567" fill="#100F0F" mask="url(#c)"/>
                </g>
                <path d="m50.76 11.466h-4.3466s-0.00646-5.7409-0.00646-5.7423c0-0.21726-0.11186-0.32606-0.36346-0.32606h-5.9228c-0.23018 0-0.35394 0.10166-0.35394 0.323v5.9337s-2.9682 0.71638-3.1691 0.77452c-0.19958 0.0578-0.3468 0.24208-0.3468 0.46206v3.7288c0 0.26792 0.2142 0.4845 0.47906 0.4845h3.0369v8.9706c0 6.6626 4.674 7.3171 7.8275 7.3171 1.4409 0 3.1647-0.46274 3.4493-0.5678 0.17204-0.06324 0.27234-0.2414 0.27234-0.43452l0.00442-4.1021c0-0.26758-0.22576-0.48416-0.48008-0.48416-0.2533 0-0.90134 0.10336-1.5684 0.10336-2.1349 0-2.8584-0.9928-2.8584-2.278 0-1.2838-3.4e-4 -8.5245-3.4e-4 -8.5245h4.3469c0.26486 0 0.47974-0.21658 0.47974-0.4845v-4.6706c0-0.26758-0.21488-0.48314-0.47974-0.48314" fill="#100F0F"/>
            </g>
        </g>
    </g>
</svg>
