<?xml version="1.0" encoding="UTF-8"?>
<svg version="1.1" viewBox="0 0 200 38" 
    xmlns="http://www.w3.org/2000/svg">
    <g fill="none" fill-rule="evenodd">
        <g transform="translate(-871 -5489)">
            <g transform="translate(871 5489)">
                <path d="m1.4302 32.927h0.58464c0.73392 0 1.2427-0.05136 1.5257-0.15384 0.27888-0.0984 0.49008-0.27072 0.6336-0.51672 0.12336-0.21336 0.18456-0.46368 0.18456-0.75072 0-0.55368-0.21936-0.93696-0.65832-1.1506-0.21744-0.11064-0.5208-0.17616-0.91056-0.1968-0.15144-0.00792-0.43248-0.01224-0.84264-0.01224h-0.51696v2.7809zm-1.2982-3.8945h1.8089c0.68904 0 1.2202 0.02472 1.5934 0.07392 0.70152 0.0984 1.243 0.37128 1.6241 0.81816 0.36096 0.43056 0.54144 0.96192 0.54144 1.5936 0 1.1074-0.53304 1.8763-1.5994 2.3071l2.0674 3.6053h-1.5322l-1.9133-3.384h-1.2922v3.384h-1.2982v-8.3981z" fill="#84BF4A"/>
                <polyline points="8.6962 32.521 12.068 32.521 12.068 33.641 8.6962 33.641 8.6962 36.311 12.48 36.311 12.48 37.431 7.398 37.431 7.398 29.033 12.369 29.033 12.369 30.146 8.6962 30.146 8.6962 32.521" fill="#84BF4A"/>
                <path d="m19.124 31.358h-1.2552c-0.02856-0.35688-0.13512-0.64608-0.31992-0.86736-0.27072-0.31992-0.66216-0.48-1.175-0.48-0.36504 0-0.67272 0.08832-0.9228 0.26448-0.2952 0.21336-0.44304 0.486-0.44304 0.81816 0 0.30768 0.156 0.558 0.46776 0.75072 0.19248 0.11904 0.6684 0.3384 1.4273 0.65832 0.65208 0.2748 1.097 0.48192 1.3349 0.62136 0.75072 0.44736 1.1261 1.1014 1.1261 1.9627 0 0.8244-0.31176 1.4702-0.93528 1.938-0.49632 0.3732-1.1441 0.55968-1.944 0.55968-1.1731 0-2.0263-0.38136-2.5594-1.1441-0.29952-0.42672-0.4656-1.003-0.49824-1.729h1.261c0.04512 0.52512 0.18888 0.9228 0.4308 1.1935 0.324 0.36528 0.78768 0.54744 1.3903 0.54744 0.44304 0 0.81-0.10848 1.1014-0.32592 0.27888-0.20928 0.41832-0.48408 0.41832-0.8244 0-0.36072-0.1824-0.66648-0.54744-0.9168-0.1968-0.13512-0.6564-0.35664-1.3781-0.66432-0.85728-0.36936-1.4338-0.68928-1.729-0.95976-0.44688-0.41856-0.67056-0.93528-0.67056-1.5504 0-0.77928 0.3096-1.3822 0.92904-1.8089 0.5004-0.34848 1.0951-0.52296 1.7842-0.52296 1.0171 0 1.7738 0.3468 2.2702 1.0399 0.25848 0.35664 0.40392 0.83664 0.4368 1.4395" fill="#84BF4A"/>
                <polyline points="22.268 32.521 25.64 32.521 25.64 33.641 22.268 33.641 22.268 36.311 26.052 36.311 26.052 37.431 20.97 37.431 20.97 29.033 25.941 29.033 25.941 30.146 22.268 30.146 22.268 32.521" fill="#84BF4A"/>
                <path d="m31.355 34.342-1.1873-3.7774-1.1878 3.7774h2.375zm-1.8211-5.3338h1.2612l2.873 8.4226h-1.3474l-0.62136-1.969h-3.0576l-0.6336 1.969h-1.3351l2.8608-8.4226z" fill="#84BF4A"/>
                <path d="m36.197 32.927h0.5844c0.73416 0 1.2427-0.05136 1.5259-0.15384 0.27888-0.0984 0.49008-0.27072 0.63336-0.51672 0.12336-0.21336 0.1848-0.46368 0.1848-0.75072 0-0.55368-0.21936-0.93696-0.65832-1.1506-0.21768-0.11064-0.5208-0.17616-0.91056-0.1968-0.15168-0.00792-0.43272-0.01224-0.84288-0.01224h-0.51672v2.7809zm-1.2984-3.8945h1.8091c0.68904 0 1.2202 0.02472 1.5931 0.07392 0.70152 0.0984 1.243 0.37128 1.6243 0.81816 0.36096 0.43056 0.54144 0.96192 0.54144 1.5936 0 1.1074-0.53328 1.8763-1.5994 2.3071l2.0671 3.6053h-1.5322l-1.9133-3.384h-1.2919v3.384h-1.2984v-8.3981z" fill="#84BF4A"/>
                <path d="m48.133 31.573h-1.1506c-0.20112-1.0418-0.77736-1.5626-1.7287-1.5626-0.66864 0-1.1976 0.27288-1.5874 0.8184-0.4224 0.60264-0.6336 1.4066-0.6336 2.4118 0 1.009 0.21912 1.817 0.65808 2.4238 0.3816 0.52536 0.90672 0.78744 1.5751 0.78744 1.0788 0 1.6817-0.67248 1.8089-2.0179h1.1813c-0.04536 0.7548-0.20736 1.3699-0.48624 1.8458-0.50856 0.86976-1.3267 1.3042-2.4547 1.3042-1.013 0-1.8458-0.336-2.4977-1.009-0.76728-0.78744-1.1506-1.8948-1.1506-3.3223 0-1.5461 0.4284-2.713 1.2857-3.5006 0.636-0.58224 1.405-0.8736 2.3071-0.8736 0.57 0 1.0788 0.12312 1.5259 0.36936 0.7956 0.43056 1.2446 1.2055 1.3474 2.3254" fill="#84BF4A"/>
                <polyline points="51.03 32.509 54.654 32.509 54.654 29.033 55.952 29.033 55.952 37.431 54.654 37.431 54.654 33.585 51.03 33.585 51.03 37.431 49.732 37.431 49.732 29.033 51.03 29.033 51.03 32.509" fill="#84BF4A"/>
                <polyline points="62.486 32.521 65.858 32.521 65.858 33.641 62.486 33.641 62.486 37.431 61.188 37.431 61.188 29.033 66.159 29.033 66.159 30.146 62.486 30.146 62.486 32.521" fill="#84BF4A"/>
                <path d="m70.656 29.999c-0.68904 0-1.2242 0.27072-1.6058 0.81216-0.43464 0.61512-0.65208 1.4069-0.65208 2.3748 0 1.0255 0.21744 1.8478 0.65208 2.467 0.37752 0.54144 0.91272 0.81216 1.6058 0.81216 0.68904 0 1.2221-0.27072 1.5996-0.81216 0.43464-0.6192 0.65232-1.4273 0.65232-2.424 0-1.009-0.21768-1.8149-0.65232-2.4178-0.38976-0.54144-0.9228-0.81216-1.5996-0.81216zm0-1.1198c0.99672 0 1.8274 0.3528 2.4917 1.0584 0.75048 0.79152 1.1258 1.8886 1.1258 3.2914 0 1.4026-0.37536 2.502-1.1258 3.2976-0.66432 0.70536-1.493 1.0582-2.4854 1.0582-1.0092 0-1.8439-0.3528-2.5042-1.0582-0.75048-0.7956-1.1258-1.9152-1.1258-3.359 0-0.6192 0.10056-1.2367 0.30144-1.8518 0.27888-0.84096 0.77928-1.4846 1.5012-1.932 0.54144-0.33624 1.1484-0.50448 1.8211-0.50448z" fill="#84BF4A"/>
                <path d="m77.153 32.927h0.58464c0.73392 0 1.2425-0.05136 1.5257-0.15384 0.27888-0.0984 0.49008-0.27072 0.6336-0.51672 0.12312-0.21336 0.18456-0.46368 0.18456-0.75072 0-0.55368-0.21936-0.93696-0.65832-1.1506-0.21744-0.11064-0.5208-0.17616-0.91056-0.1968-0.15168-0.00792-0.43272-0.01224-0.84288-0.01224h-0.51672v2.7809zm-1.2982-3.8945h1.8089c0.68904 0 1.2202 0.02472 1.5934 0.07392 0.70128 0.0984 1.2427 0.37128 1.6241 0.81816 0.36096 0.43056 0.54144 0.96192 0.54144 1.5936 0 1.1074-0.53328 1.8763-1.5994 2.3071l2.0671 3.6053h-1.5322l-1.913-3.384h-1.2922v3.384h-1.2982v-8.3981z" fill="#84BF4A"/>
                <path d="m89.667 33.173h2.8054v3.4762c-0.88584 0.62352-1.8682 0.93504-2.947 0.93504-1.091 0-1.9668-0.3444-2.627-1.0334-0.37752-0.38976-0.65424-0.85944-0.8304-1.409-0.19704-0.60696-0.29544-1.2446-0.29544-1.9133 0-1.4357 0.37728-2.545 1.1321-3.3283 0.65616-0.68088 1.4909-1.0214 2.5039-1.0214 0.59064 0 1.1218 0.1272 1.5934 0.3816 0.804 0.4308 1.2554 1.1957 1.3538 2.2946h-1.1506c-0.18864-1.0294-0.78144-1.5442-1.7782-1.5442-0.68088 0-1.2082 0.24-1.5811 0.72-0.4716 0.5988-0.70752 1.4311-0.70752 2.4977 0 1.0706 0.24192 1.9051 0.726 2.5039 0.38544 0.47976 0.94128 0.71976 1.6673 0.71976 0.64392 0 1.2552-0.18216 1.8334-0.54744v-1.7105h-1.698v-1.0212" fill="#84BF4A"/>
                <path d="m95.537 32.927h0.5844c0.73416 0 1.2427-0.05136 1.5259-0.15384 0.27888-0.0984 0.49008-0.27072 0.63336-0.51672 0.12336-0.21336 0.1848-0.46368 0.1848-0.75072 0-0.55368-0.21936-0.93696-0.65832-1.1506-0.21768-0.11064-0.5208-0.17616-0.91056-0.1968-0.15168-0.00792-0.43272-0.01224-0.84288-0.01224h-0.51672v2.7809zm-1.2982-3.8945h1.8089c0.68904 0 1.2202 0.02472 1.5931 0.07392 0.70152 0.0984 1.243 0.37128 1.6243 0.81816 0.36096 0.43056 0.54144 0.96192 0.54144 1.5936 0 1.1074-0.53328 1.8763-1.5994 2.3071l2.0671 3.6053h-1.5322l-1.913-3.384h-1.2922v3.384h-1.2982v-8.3981z" fill="#84BF4A"/>
                <path d="m105.33 34.342-1.1873-3.7774-1.1875 3.7774h2.3748zm-1.8211-5.3338h1.2612l2.8733 8.4226h-1.3474l-0.62136-1.969h-3.0576l-0.63384 1.969h-1.3351l2.8608-8.4226z" fill="#84BF4A"/>
                <polyline points="108.87 29.033 110.27 29.033 113.98 35.45 113.98 29.033 115.21 29.033 115.21 37.431 113.86 37.431 110.11 31.026 110.11 37.431 108.87 37.431 108.87 29.033" fill="#84BF4A"/>
                <path d="m118.59 36.311h0.6768c0.50448 0 0.89616-0.02232 1.175-0.06768 0.636-0.11088 1.1138-0.42864 1.4335-0.95352 0.34056-0.56184 0.51072-1.253 0.51072-2.0734 0-0.84072-0.18864-1.5382-0.56616-2.0918-0.34056-0.50448-0.82416-0.80592-1.4518-0.90432-0.28296-0.0492-0.7548-0.07392-1.415-0.07392h-0.36312v6.1646zm-1.2982-7.2782h1.7045c0.68064 0 1.2384 0.03288 1.6733 0.09864 0.89832 0.13944 1.6181 0.55992 2.1595 1.261 0.5988 0.77544 0.89832 1.7206 0.89832 2.8363 0 1.1443-0.30576 2.1062-0.91704 2.8853-0.55344 0.714-1.3082 1.128-2.2639 1.243-0.38952 0.0492-0.966 0.07392-1.7287 0.07392h-1.5259v-8.3981z" fill="#84BF4A"/>
                <path d="m134.43 31.573h-1.1506c-0.20112-1.0418-0.77736-1.5626-1.7287-1.5626-0.66864 0-1.1976 0.27288-1.5874 0.8184-0.4224 0.60264-0.6336 1.4066-0.6336 2.4118 0 1.009 0.21912 1.817 0.65808 2.4238 0.3816 0.52536 0.90672 0.78744 1.5751 0.78744 1.0788 0 1.6817-0.67248 1.8089-2.0179h1.1813c-0.04536 0.7548-0.20712 1.3699-0.486 1.8458-0.5088 0.86976-1.327 1.3042-2.455 1.3042-1.013 0-1.8456-0.336-2.4977-1.009-0.76728-0.78744-1.1506-1.8948-1.1506-3.3223 0-1.5461 0.4284-2.713 1.2857-3.5006 0.636-0.58224 1.405-0.8736 2.3074-0.8736 0.57 0 1.0786 0.12312 1.5257 0.36936 0.7956 0.43056 1.2446 1.2055 1.3474 2.3254" fill="#84BF4A"/>
                <polyline points="137.33 32.509 140.95 32.509 140.95 29.033 142.25 29.033 142.25 37.431 140.95 37.431 140.95 33.585 137.33 33.585 137.33 37.431 136.03 37.431 136.03 29.033 137.33 29.033 137.33 32.509" fill="#84BF4A"/>
                <path d="m148.16 34.342-1.1873-3.7774-1.1878 3.7774h2.375zm-1.8211-5.3338h1.2612l2.8733 8.4226h-1.3476l-0.62112-1.969h-3.0578l-0.6336 1.969h-1.3351l2.8608-8.4226z" fill="#84BF4A"/>
                <polyline points="151.71 29.033 153.04 29.033 153.04 36.311 156.67 36.311 156.67 37.431 151.71 37.431 151.71 29.033" fill="#84BF4A"/>
                <polyline points="157.96 29.033 159.29 29.033 159.29 36.311 162.92 36.311 162.92 37.431 157.96 37.431 157.96 29.033" fill="#84BF4A"/>
                <polyline points="165.51 32.521 168.88 32.521 168.88 33.641 165.51 33.641 165.51 36.311 169.29 36.311 169.29 37.431 164.21 37.431 164.21 29.033 169.18 29.033 169.18 30.146 165.51 30.146 165.51 32.521" fill="#84BF4A"/>
                <polyline points="170.77 29.033 172.16 29.033 175.87 35.45 175.87 29.033 177.1 29.033 177.1 37.431 175.76 37.431 172 31.026 172 37.431 170.77 37.431 170.77 29.033" fill="#84BF4A"/>
                <path d="m182.58 33.173h2.8056v3.4762c-0.88608 0.62352-1.8682 0.93504-2.947 0.93504-1.091 0-1.9668-0.3444-2.627-1.0334-0.37752-0.38976-0.65424-0.85944-0.83064-1.409-0.1968-0.60696-0.2952-1.2446-0.2952-1.9133 0-1.4357 0.37728-2.545 1.1321-3.3283 0.65616-0.68088 1.4909-1.0214 2.5039-1.0214 0.59064 0 1.1218 0.1272 1.5934 0.3816 0.80376 0.4308 1.2552 1.1957 1.3538 2.2946h-1.1506c-0.18888-1.0294-0.78144-1.5442-1.7784-1.5442-0.68088 0-1.2079 0.24-1.5811 0.72-0.47136 0.5988-0.70728 1.4311-0.70728 2.4977 0 1.0706 0.24192 1.9051 0.726 2.5039 0.38544 0.47976 0.94128 0.71976 1.6673 0.71976 0.64392 0 1.255-0.18216 1.8334-0.54744v-1.7105h-1.6982v-1.0212" fill="#84BF4A"/>
                <polyline points="188.45 32.521 191.82 32.521 191.82 33.641 188.45 33.641 188.45 36.311 192.23 36.311 192.23 37.431 187.15 37.431 187.15 29.033 192.12 29.033 192.12 30.146 188.45 30.146 188.45 32.521" fill="#84BF4A"/>
                <path d="m198.88 31.358h-1.2552c-0.02856-0.35688-0.13512-0.64608-0.31992-0.86736-0.27072-0.31992-0.6624-0.48-1.175-0.48-0.36504 0-0.67272 0.08832-0.9228 0.26448-0.29544 0.21336-0.44304 0.486-0.44304 0.81816 0 0.30768 0.156 0.558 0.46752 0.75072 0.19272 0.11904 0.66864 0.3384 1.4275 0.65832 0.65208 0.2748 1.097 0.48192 1.3349 0.62136 0.75072 0.44736 1.1261 1.1014 1.1261 1.9627 0 0.8244-0.31176 1.4702-0.93528 1.938-0.49632 0.3732-1.1441 0.55968-1.944 0.55968-1.1731 0-2.0263-0.38136-2.5594-1.1441-0.29976-0.42672-0.4656-1.003-0.49848-1.729h1.2612c0.04512 0.52512 0.18864 0.9228 0.4308 1.1935 0.324 0.36528 0.78744 0.54744 1.3903 0.54744 0.44304 0 0.81-0.10848 1.1014-0.32592 0.27888-0.20928 0.41832-0.48408 0.41832-0.8244 0-0.36072-0.18264-0.66648-0.54744-0.9168-0.1968-0.13512-0.6564-0.35664-1.3781-0.66432-0.85752-0.36936-1.4338-0.68928-1.729-0.95976-0.44712-0.41856-0.67056-0.93528-0.67056-1.5504 0-0.77928 0.3096-1.3822 0.92904-1.8089 0.5004-0.34848 1.0949-0.52296 1.7839-0.52296 1.0174 0 1.7741 0.3468 2.2702 1.0399 0.25848 0.35664 0.40416 0.83664 0.43704 1.4395" fill="#84BF4A"/>
                <polyline points="11.041 8.4857 11.041 0.22536 14.958 0.22536 14.958 20.635 11.041 20.635 11.041 12.402 4.0466 12.402 4.0466 20.635 0.132 20.635 0.132 0.22536 4.0466 0.22536 4.0466 8.4857 11.041 8.4857" fill="#005488"/>
                <path d="m32.212 0.22536v3.9146h-8.9542v4.3457h7.7726v3.9168h-7.7726v4.3181h8.9542v3.9144h-10.94c-0.17352 0-0.3468-0.05856-0.46176-0.2016l-1.2658-1.2658c-0.14304-0.11496-0.2016-0.28824-0.2016-0.46176v-16.554c0-0.17088 0.05856-0.3444 0.2016-0.45936l1.2658-1.2658c0.11496-0.11712 0.28824-0.2016 0.46176-0.2016h10.94" fill="#005488"/>
                <path d="m38.267 20.635c-0.17352 0-0.34704-0.05856-0.46176-0.2016l-1.266-1.2658c-0.1452-0.11496-0.20136-0.28824-0.20136-0.46176v-18.48h3.9144v16.495h8.5205v3.9144h-10.506" fill="#005488"/>
                <path d="m69.794 0.22536v20.41h-3.9146v-11.284l-3.1949 6.678c-0.11496 0.22968-0.34464 0.37488-0.57648 0.37488h-2.3018c-0.26016 0-0.48984-0.1452-0.60504-0.37488l-3.1946-6.678v11.284h-3.9146v-20.41h3.9146l4.9505 10.363 4.9224-10.363h3.9146" fill="#005488"/>
                <polyline points="84.833 8.4857 84.833 0.22536 88.75 0.22536 88.75 20.635 84.833 20.635 84.833 12.402 77.839 12.402 77.839 20.635 73.924 20.635 73.924 0.22536 77.839 0.22536 77.839 8.4857 84.833 8.4857" fill="#005488"/>
                <path d="m103.56 14.82v-8.7504c0-0.17352-0.08688-0.34704-0.2016-0.46176l-1.2377-1.266c-0.14544-0.11472-0.31656-0.20136-0.48984-0.20136h-3.5114c-0.17352 0-0.31656 0.08664-0.46176 0.20136l-1.2377 1.266c-0.14304 0.11472-0.2016 0.28824-0.2016 0.46176v8.7504c0 0.17328 0.05856 0.31632 0.2016 0.46152l1.2377 1.2379c0.1452 0.1428 0.28824 0.2016 0.46176 0.2016h3.5114c0.17328 0 0.3444-0.0588 0.48984-0.2016l1.2377-1.2379c0.11472-0.1452 0.2016-0.28824 0.2016-0.46152zm0.92112-13.617 2.0438 2.016c0.60504 0.60456 0.94944 1.4393 0.94944 2.3018v9.8167c0 0.86472-0.3444 1.6994-0.94944 2.304l-2.0438 2.0441c-0.6048 0.6048-1.4393 0.94944-2.3042 0.94944h-4.5756c-0.86496 0-1.7275-0.31656-2.3321-0.94944l-2.016-2.0441c-0.6048-0.60456-0.94944-1.4393-0.94944-2.304v-9.8167c0-0.86256 0.34464-1.6973 0.94944-2.3018l2.016-2.016c0.63264-0.63288 1.4671-0.97752 2.3321-0.97752h4.5756c0.86496 0 1.6714 0.37272 2.3042 0.97752z" fill="#005488"/>
                <path d="m112.87 20.635c-0.17352 0-0.34704-0.05856-0.462-0.2016l-1.2655-1.2658c-0.14544-0.11496-0.2016-0.28824-0.2016-0.46176v-18.48h3.9144v16.495h8.5205v3.9144h-10.506" fill="#005488"/>
                <polyline points="123.09 4.14 123.09 0.22536 137.83 0.22536 137.83 4.14 132.42 4.14 132.42 20.635 128.5 20.635 128.5 4.14 123.09 4.14" fill="#005488"/>
                <path d="m152.98 0.42696 1.2658 1.2658c0.11496 0.11496 0.2016 0.28848 0.2016 0.45936v1.0082l-8.5793 13.56h8.4646v3.9144h-11.688c-0.17328 0-0.34704-0.05856-0.46176-0.2016l-1.2658-1.2658c-0.11472-0.11496-0.2016-0.28824-0.2016-0.46176v-1.1791l8.4643-13.387h-8.579v-3.9146h11.917c0.17352 0 0.3468 0.08448 0.46176 0.2016" fill="#005488"/>
            </g>
        </g>
    </g>
</svg>
