<?xml version="1.0" encoding="UTF-8"?>
<svg version="1.1" viewBox="0 0 99 49" 
    xmlns="http://www.w3.org/2000/svg">
    <g fill="none" fill-rule="evenodd">
        <g transform="translate(-254 -5484)" fill="#E20074" fill-rule="nonzero">
            <g transform="translate(254 5484)">
                <polygon id="Path" points="0 32.045 0 22.256 9.802 22.256 9.802 32.045"/>
                <polygon id="Path" points="29.874 32.045 29.874 22.256 39.663 22.256 39.663 32.045"/>
                <polygon id="Path" points="59.254 32.045 59.254 22.256 69.056 22.256 69.056 32.045"/>
                <polygon id="a" points="88.634 32.045 88.634 22.256 98.423 22.256 98.423 32.045"/>
                <path d="m39.156 0h-38.675l-0.481 17.056 2.6 0.442c0.468-5.031 1.794-8.762 3.9-11.193 2.4306-2.6187 5.866-4.0715 9.438-3.991v35.711c0 3.12-0.442 5.2-1.3 6.071-1.0894 0.92871-2.4686 1.4482-3.9 1.469-0.598 0.091-1.482 0.091-2.782 0.091v2.73h23.816v-2.73c-1.3 0-2.249 0-2.795-0.078-1.4314-0.02077-2.8106-0.54029-3.9-1.469-0.91-0.923-1.3-2.951-1.3-6.071v-35.711c3.572-0.080453 7.0074 1.3723 9.438 3.991 2.158 2.4353 3.4797 6.1663 3.965 11.193l2.6-0.442-0.624-17.069z"/>
            </g>
        </g>
    </g>
</svg>
